REM MD5 e2e52223697b2a86db9bded8969adb01
FILE "Racing Special (Europe).bin" BINARY
  TRACK 01 MODE2/2352
    INDEX 01 00:00:00
  TRACK 02 AUDIO
    INDEX 00 25:21:10
    INDEX 01 25:23:10
  TRACK 03 AUDIO
    INDEX 00 27:09:69
    INDEX 01 27:11:69
  TRACK 04 AUDIO
    INDEX 00 28:58:53
    INDEX 01 29:00:53
  TRACK 05 AUDIO
    INDEX 00 32:40:56
    INDEX 01 32:42:56
  TRACK 06 AUDIO
    INDEX 00 34:11:56
    INDEX 01 34:13:56
REM LEADOUT 37:15:13
